<svg width="507" height="182" viewBox="0 0 507 182" fill="none" xmlns="http://www.w3.org/2000/svg">
<path d="M472.233 116.618C472.149 116.511 472.044 116.422 471.924 116.358C471.804 116.294 471.672 116.256 471.537 116.247C471.343 116.24 471.15 116.272 470.968 116.342C470.787 116.412 470.622 116.517 470.482 116.652C467.388 119.975 463.394 122.322 458.99 123.404C455.477 124.248 452.762 123.933 450.921 122.447C450.352 122.031 449.911 121.464 449.645 120.81C449.379 120.156 449.301 119.441 449.417 118.745C450.416 118.576 453.906 117.811 455.174 116.494C455.606 116.141 455.908 115.655 456.034 115.111C456.16 114.567 456.102 113.997 455.87 113.49C455.569 113.003 455.123 112.624 454.596 112.404C454.069 112.184 453.486 112.135 452.93 112.263C451.887 112.428 450.894 112.825 450.024 113.424C449.154 114.024 448.429 114.812 447.902 115.729C446.031 118.795 443.408 121.329 440.282 123.089C438.955 123.979 437.332 124.31 435.764 124.011C434.196 123.712 432.808 122.807 431.899 121.491C431.148 120.513 430.48 119.474 429.901 118.385C429.587 117.833 429.273 117.26 428.936 116.742C428.792 116.526 428.722 116.268 428.736 116.009C428.751 115.749 428.848 115.501 429.015 115.302C432.286 109.862 434.666 103.931 436.062 97.7351C436.588 95.646 436.691 93.4727 436.365 91.3432C436.23 90.6566 435.945 90.0087 435.529 89.4463C435.114 88.8839 434.579 88.421 433.964 88.091C433.29 87.7448 432.547 87.5577 431.79 87.544C431.033 87.5304 430.284 87.6905 429.598 88.0122C426.647 89.2726 425.109 93.3463 424.952 93.7964C423.46 97.9376 423.19 102.54 424.088 108.291C424.301 109.63 424.739 111.475 425.031 112.702C425.031 112.871 425.109 113.028 425.143 113.175C423.799 112.841 422.388 112.89 421.07 113.315C419.752 113.74 418.578 114.526 417.68 115.583C415.55 117.86 413.118 119.833 410.453 121.446C408.302 122.874 405.829 123.741 403.259 123.967C400.004 123.865 399.286 122.841 398.77 119.96C398.703 119.431 398.647 118.903 398.59 118.374C398.526 117.489 398.406 116.61 398.231 115.74C398.128 115.133 397.866 114.564 397.472 114.091C397.078 113.619 396.565 113.26 395.987 113.051C395.399 112.876 394.775 112.865 394.182 113.02C393.588 113.175 393.048 113.489 392.62 113.929C391.618 114.877 390.776 115.983 390.129 117.203C389.354 118.61 387.817 121.705 387.166 122.965C387.166 121.255 387.009 116.753 386.941 115.088C386.941 114.683 386.885 113.614 385.819 113.614C385.393 113.614 384.697 113.827 384.697 115.088C384.697 115.088 384.697 115.752 384.697 116.742L384.562 116.866C379.49 121.491 377.054 122.988 375.898 123.438C372.666 124.676 369.917 123.64 368.177 120.501C367.829 119.859 367.055 118.104 366.775 117.305L366.853 115.572C366.865 115.329 366.816 115.087 366.71 114.869C366.604 114.651 366.445 114.463 366.247 114.322C366.027 114.17 365.768 114.082 365.501 114.068C365.233 114.054 364.967 114.115 364.732 114.244C363.635 113.283 362.247 112.721 360.793 112.646C358.268 112.646 355.541 114.593 354.475 115.673C351.982 118.178 349.107 120.267 345.957 121.862C343.428 123.236 340.607 123.981 337.731 124.034C337.313 124.055 336.896 123.984 336.508 123.827C336.12 123.67 335.772 123.429 335.486 123.123C335.272 122.768 335.135 122.372 335.085 121.961C335.034 121.55 335.072 121.133 335.194 120.737C335.34 119.972 335.509 119.218 335.677 118.486C335.915 117.655 335.86 116.766 335.52 115.971C335.181 115.175 334.578 114.522 333.814 114.12C333.388 113.85 332.939 113.591 332.49 113.343L332.187 113.163C332.795 111.674 333.107 110.08 333.107 108.471C333.121 108.16 333.055 107.851 332.916 107.573C332.776 107.295 332.568 107.058 332.31 106.884C331.995 106.702 331.64 106.6 331.276 106.586C330.913 106.573 330.551 106.648 330.223 106.805C329.654 107.068 329.149 107.453 328.746 107.933C328.342 108.414 328.049 108.978 327.889 109.585C327.785 110.386 327.85 111.2 328.078 111.975C328.306 112.75 328.692 113.469 329.213 114.086C327.81 116.584 319.629 121.817 319.55 121.862L319.393 121.963C317.407 123.201 315.577 124.405 314.107 125.339C314.276 123.381 314.365 121.322 314.365 119.206C314.406 118.958 314.351 118.704 314.211 118.495C314.072 118.286 313.858 118.138 313.613 118.081C313.497 118.038 313.373 118.019 313.25 118.025C313.126 118.031 313.005 118.062 312.893 118.115C312.781 118.169 312.681 118.244 312.599 118.337C312.516 118.429 312.453 118.538 312.413 118.655C311.066 122.594 305.881 128.625 302.862 130.426C298.957 132.744 293.615 132.677 291.079 131.09C287.611 129.019 285.916 125.565 285.467 119.522C285.088 114.399 286.318 109.286 288.985 104.9C291.652 100.514 295.622 97.0758 300.337 95.068C303.704 93.6839 310.134 92.0859 313.277 94.8992C313.914 95.4104 314.4 96.0859 314.682 96.8533C314.965 97.6206 315.034 98.4506 314.882 99.2543C314.343 102.63 308.541 113.715 308.496 113.816C308.419 113.926 308.365 114.05 308.338 114.181C308.31 114.313 308.309 114.448 308.336 114.58C308.362 114.711 308.414 114.836 308.49 114.947C308.566 115.057 308.663 115.151 308.777 115.223C309.006 115.373 309.286 115.427 309.555 115.372C309.823 115.317 310.06 115.158 310.213 114.93C310.471 114.458 316.565 103.182 316.947 99.4006C317.496 94.1115 313.714 91.6583 310 91.1181C306.477 90.6938 302.906 91.275 299.698 92.7949L299.507 92.8624C291.337 96.0471 282.011 105.016 282.673 119.87C282.671 123.886 284.055 127.778 286.59 130.887C287.74 132.13 289.128 133.128 290.67 133.824C292.212 134.52 293.877 134.899 295.568 134.939C299.754 135.096 303.861 132.272 304.029 132.159C306.939 130.15 309.432 127.593 311.369 124.631C311.29 125.61 311.201 126.589 311.055 127.5C302.952 133.296 297.15 138.843 294.288 143.514C293.873 144.144 290.327 149.68 293.11 152.618C293.485 152.967 293.927 153.237 294.41 153.409C294.892 153.581 295.404 153.653 295.916 153.619C298.439 153.457 300.852 152.522 302.829 150.941C305.915 148.555 312.177 140.7 313.928 128.007C316.172 126.442 318.686 124.788 321.492 123.1C321.559 123.1 328.764 118.948 331.21 115.054L331.39 115.155C331.727 115.335 332.063 115.515 332.389 115.718C333.567 116.438 333.735 116.843 333.511 118.194C333.444 118.546 333.365 118.895 333.275 119.24C333.174 119.713 333.062 120.185 332.984 120.658C332.512 123.471 333.679 125.328 336.283 125.913C338.887 126.499 345.093 126.15 351.579 121.153C351.456 121.778 351.474 122.423 351.631 123.04C351.789 123.657 352.081 124.231 352.488 124.721C352.936 125.197 353.493 125.556 354.112 125.766C354.73 125.976 355.39 126.031 356.035 125.925C357.92 125.666 359.401 124.045 360.322 122.976L360.759 122.492C361.433 121.783 362.6 120.32 363.542 119.116C363.935 118.621 364.328 118.149 364.597 117.822L364.833 118.441C365.197 119.467 365.613 120.474 366.079 121.457C368.155 125.486 372.363 127.027 376.796 125.384C379.288 124.439 383.272 121.131 384.876 119.758C384.857 121.368 384.988 122.977 385.269 124.563C385.331 124.911 385.491 125.235 385.729 125.496C385.968 125.757 386.275 125.945 386.616 126.037C386.999 126.075 387.385 126.003 387.728 125.83C388.072 125.657 388.36 125.389 388.557 125.058C388.86 124.653 389.826 122.74 391.071 120.287L392.014 118.43C392.51 117.469 393.112 116.566 393.81 115.74C393.97 115.528 394.182 115.362 394.427 115.257C394.671 115.152 394.938 115.113 395.201 115.144C395.762 115.29 395.998 115.988 396.11 116.551C396.257 117.4 396.358 118.256 396.413 119.116C396.413 119.443 396.413 119.769 396.503 120.095C396.828 123.336 398.332 125.261 400.992 125.812C404.754 126.221 408.54 125.28 411.676 123.156C412.518 122.639 413.359 122.031 414.178 121.525L414.672 121.187C414.672 121.435 414.672 121.671 414.672 121.918C414.601 122.556 414.7 123.201 414.961 123.787C415.221 124.373 415.633 124.879 416.154 125.252C416.674 125.625 417.285 125.851 417.922 125.908C418.559 125.965 419.2 125.85 419.779 125.576C421.34 125.002 422.711 124.005 423.74 122.695C424.66 121.57 425.513 120.534 426.411 119.386C426.692 119.026 426.983 118.666 427.264 118.261C428.106 119.781 429.035 121.25 430.047 122.661C430.936 123.894 432.144 124.861 433.54 125.456C434.936 126.05 436.468 126.252 437.97 126.037C441.487 125.115 444.658 123.182 447.094 120.478C447.162 120.624 447.229 120.782 447.307 120.928C447.612 121.708 448.028 122.44 448.542 123.1C450.438 125.351 453.188 126.307 456.746 125.947C462.357 125.396 467.396 122.864 472.008 118.227C472.131 118.139 472.234 118.026 472.313 117.896C472.391 117.766 472.442 117.621 472.463 117.471C472.484 117.32 472.474 117.167 472.435 117.021C472.395 116.874 472.326 116.737 472.233 116.618ZM450.248 116.382C450.602 115.857 451.06 115.411 451.592 115.071C452.125 114.73 452.721 114.502 453.345 114.401C453.581 114.401 453.682 114.469 453.693 114.491C453.704 114.514 453.693 114.626 453.491 114.818C452.641 115.725 451.485 116.283 450.248 116.382ZM425.884 116.044C424.453 118.418 422.704 120.583 420.688 122.481C420.291 122.873 419.812 123.17 419.286 123.351C418.759 123.533 418.199 123.593 417.646 123.528C417.424 123.44 417.236 123.283 417.109 123.081C416.982 122.879 416.923 122.641 416.939 122.402C416.865 120.693 417.456 119.023 418.589 117.743C419.605 116.31 421.132 115.323 422.854 114.986H423.213C424.203 114.994 425.155 115.371 425.884 116.044ZM433.997 96.0471C433.145 101.37 428.869 110.418 427.545 112.927C425.48 105.804 425.3 99.9295 427.073 94.4829C427.432 93.3575 428.88 90.7467 430.552 89.9815C430.898 89.8071 431.277 89.708 431.664 89.6905C432.05 89.6731 432.437 89.7377 432.797 89.8802C433.092 90.0194 433.353 90.2214 433.562 90.4721C433.772 90.7228 433.924 91.0162 434.009 91.3319C434.344 92.8861 434.34 94.4945 433.997 96.0471ZM363.161 115.808L363.004 116.01C361.128 118.519 358.992 120.821 356.629 122.875C356.323 123.093 355.96 123.216 355.585 123.228C355.209 123.24 354.839 123.141 354.52 122.943C354.332 122.819 354.177 122.653 354.068 122.457C353.958 122.261 353.898 122.042 353.891 121.817C353.891 119.567 357.101 115.245 360.131 114.885H360.726C361.172 114.869 361.618 114.943 362.036 115.101C362.454 115.259 362.836 115.5 363.161 115.808ZM330.436 111.903C330.106 111.407 329.978 110.803 330.077 110.215C330.204 109.593 330.561 109.043 331.076 108.673C331.219 109.791 330.994 110.925 330.436 111.903ZM301.145 149.242C299.529 150.491 296.757 151.177 295.534 150.221C293.839 148.96 295.534 145.528 295.994 144.751L296.106 144.583C297.902 141.634 301.875 136.784 310.696 130.291C308.575 142.186 303.872 147.25 301.213 149.23L301.145 149.242Z" fill="#F8F3EA"/>
<path d="M261.889 116.382L261.698 116.528C258.847 119.105 255.599 121.202 252.08 122.74C248.994 123.865 246.772 124.09 245.493 123.303C245.035 122.971 244.659 122.537 244.396 122.035C244.134 121.533 243.99 120.977 243.978 120.411C243.922 119.859 243.877 119.285 243.832 118.756C243.742 117.766 243.652 116.742 243.484 115.74C243.411 115.122 243.172 114.534 242.793 114.041C242.413 113.547 241.908 113.166 241.329 112.938C240.745 112.758 240.124 112.74 239.531 112.887C238.938 113.033 238.395 113.339 237.962 113.771C237.109 114.512 236.404 115.409 235.886 116.416C235.224 117.789 234.18 120.095 233.406 121.772C233.081 122.492 232.811 123.089 232.632 123.46C232.632 123.348 232.632 123.213 232.564 123.111C232.497 123.01 232.564 122.481 232.475 121.986C232.376 119.731 232.053 117.492 231.509 115.302C231.379 114.741 231.099 114.226 230.698 113.813C230.298 113.401 229.793 113.105 229.237 112.959C228.682 112.813 228.097 112.822 227.546 112.985C226.995 113.148 226.499 113.459 226.111 113.884C225.143 114.823 224.322 115.905 223.676 117.091C223.059 118.216 222.554 119.342 222.038 120.467C221.791 121.03 221.544 121.592 221.286 122.144C221.197 122.319 221.118 122.499 221.05 122.684C220.96 122.886 220.837 123.179 220.713 123.426C220.646 121.682 220.422 117.867 220.309 115.808V115.155C220.309 114.716 220.309 113.816 219.187 113.749C218.065 113.681 218.065 114.705 218.065 115.302C218.065 115.302 218.132 116.528 218.233 118.115C218.087 118.204 217.955 118.314 217.84 118.441C215.596 120.692 212.229 123.46 208.862 123.685C206.775 123.832 205.821 123.888 204.789 122.414C204.033 120.846 203.649 119.124 203.666 117.383C203.688 117.153 203.639 116.921 203.524 116.719C203.41 116.518 203.236 116.357 203.027 116.258C202.772 116.165 202.496 116.147 202.231 116.207C201.966 116.267 201.724 116.402 201.534 116.596C201.423 116.67 201.318 116.753 201.22 116.843C197.797 120.084 190.704 124.451 185.71 123.989C185.306 123.992 184.905 123.908 184.535 123.743C184.166 123.578 183.836 123.336 183.567 123.033C183.359 122.701 183.223 122.329 183.167 121.942C183.111 121.554 183.136 121.159 183.241 120.782C183.376 120.084 183.533 119.387 183.69 118.689L183.758 118.407C183.984 117.592 183.927 116.724 183.597 115.945C183.266 115.166 182.682 114.522 181.94 114.12C181.491 113.839 181.042 113.58 180.615 113.343L180.324 113.175C180.402 112.848 180.492 112.522 180.57 112.196C180.829 111.228 181.064 110.305 181.233 109.349C181.363 108.846 181.315 108.313 181.098 107.842C180.882 107.37 180.509 106.988 180.043 106.76C179.539 106.557 178.983 106.527 178.461 106.676C177.939 106.825 177.481 107.143 177.159 107.582C175.431 109.461 175.442 111.689 177.159 113.861C174.241 117.739 170.444 120.864 166.082 122.976C163.838 123.967 161.806 124.102 160.359 123.449C159.761 123.137 159.238 122.698 158.825 122.164C158.413 121.63 158.12 121.013 157.968 120.354C157.603 118.98 157.337 117.581 157.171 116.168C157.093 115.583 157.014 115.043 156.925 114.458C156.899 114.075 156.738 113.713 156.471 113.439C156.203 113.164 155.847 112.995 155.466 112.961C155.092 112.926 154.717 113.021 154.404 113.23C154.092 113.439 153.86 113.749 153.749 114.109V114.199C153.38 116.62 152.76 118.997 151.897 121.288C151.246 122.943 150.034 124.113 149.125 123.955C148.216 123.798 147.913 123.156 147.666 121.851C147.475 120.793 147.139 118.475 146.981 116.99C146.989 116.701 146.927 116.415 146.8 116.157C146.673 115.898 146.485 115.674 146.252 115.504C146.045 115.37 145.798 115.313 145.553 115.344C145.309 115.375 145.083 115.491 144.916 115.673C144.791 115.83 144.698 116.01 144.642 116.203C144.586 116.396 144.569 116.598 144.591 116.798C141.817 119.223 138.691 121.211 135.321 122.695C132.235 123.82 130.024 124.045 128.734 123.258C128.268 122.921 127.889 122.478 127.627 121.965C127.366 121.453 127.23 120.885 127.23 120.309C127.162 119.758 127.118 119.184 127.073 118.666C126.994 117.665 126.904 116.641 126.725 115.639C126.688 115.003 126.463 114.392 126.081 113.883C125.698 113.374 125.173 112.99 124.573 112.78C123.973 112.569 123.325 112.542 122.709 112.7C122.093 112.858 121.538 113.196 121.113 113.67C120.26 114.408 119.559 115.307 119.049 116.314C118.375 117.699 117.32 120.017 116.546 121.716L115.794 123.359C115.762 123.245 115.739 123.128 115.727 123.01C115.727 122.763 115.659 122.369 115.626 121.885C115.531 119.634 115.211 117.398 114.672 115.212C114.542 114.651 114.261 114.136 113.861 113.723C113.46 113.311 112.955 113.015 112.399 112.869C111.844 112.723 111.259 112.732 110.708 112.895C110.157 113.058 109.661 113.369 109.274 113.794C108.311 114.745 107.497 115.838 106.861 117.035C106.244 118.16 105.739 119.285 105.234 120.411C104.987 120.973 104.729 121.536 104.47 122.087L104.235 122.627C104.156 122.83 104.022 123.123 103.909 123.37C103.842 121.682 103.629 118.115 103.505 115.966V115.099C103.505 114.66 103.505 113.76 102.383 113.692C101.261 113.625 101.261 114.649 101.261 115.245C101.261 115.245 101.261 115.853 101.339 116.753C100.913 117.192 100.43 117.654 99.9703 118.104C97.9371 120.284 95.4968 122.043 92.7878 123.28C86.8175 125.171 85.3249 121.603 83.8098 117.822L83.5629 117.237L83.6415 115.493C83.6532 115.233 83.5949 114.976 83.4725 114.747C83.3502 114.518 83.1684 114.327 82.9465 114.193C82.7246 114.059 82.4707 113.988 82.2118 113.987C81.9528 113.986 81.6984 114.055 81.4755 114.187C80.5815 113.42 79.4967 112.911 78.3367 112.712C77.1767 112.514 75.9849 112.635 74.8879 113.062C73.2558 113.66 71.8112 114.681 70.7019 116.022L70.6234 116.101C70.0286 116.753 69.2654 117.654 68.4911 118.565C67.7167 119.477 66.9311 120.399 66.3364 121.052C62.3187 125.553 55.5852 130.865 48.7731 132.305C43.0496 133.543 39.4809 128.929 38.5269 127.478C37.0477 125.085 36.2951 122.313 36.361 119.499C36.26 102.45 51.0962 95.0906 51.2421 95.0231C52.3643 94.5167 57.9756 92.086 62.4646 93.9653C63.452 94.463 64.2864 95.2197 64.8792 96.155C65.472 97.0902 65.8011 98.1691 65.8313 99.2768C65.966 102.855 63.8337 107.717 59.4345 113.782C59.321 113.955 59.2631 114.159 59.2684 114.366C59.2737 114.572 59.3421 114.773 59.4644 114.939C59.5866 115.106 59.7568 115.231 59.9521 115.298C60.1474 115.365 60.3584 115.37 60.5568 115.313C60.8002 115.268 61.0172 115.131 61.1628 114.93C65.5171 108.977 67.8963 103.587 67.8963 99.3219C67.8807 97.3479 67.1673 95.4435 65.8829 93.9475C64.5985 92.4515 62.8265 91.4609 60.8822 91.1519C56.7635 90.353 52.5214 91.9059 50.3555 92.9075C46.652 94.5279 34.5317 101.336 33.6676 118.633C33.5244 122.156 34.3888 125.646 36.159 128.693C37.876 131.304 41.7702 134.218 43.5995 134.567C44.549 134.758 45.5153 134.853 46.4837 134.849C50.5911 134.849 54.2609 133.161 57.7062 131.259C61.6696 128.901 65.228 125.918 68.2442 122.425C68.2608 122.996 68.4057 123.555 68.6681 124.062C68.9304 124.568 69.3034 125.009 69.7592 125.351C70.3209 125.719 70.9662 125.938 71.6352 125.99C72.3042 126.041 72.9753 125.922 73.5861 125.643C75.058 124.844 76.3524 123.753 77.3905 122.436C77.8731 121.862 78.7148 120.838 79.5228 119.848L81.195 117.811L81.4643 118.498C81.7785 119.308 82.0703 120.073 82.3958 120.827C82.7918 121.864 83.3935 122.81 84.1645 123.608C84.9356 124.406 85.8599 125.038 86.8817 125.467C87.9034 125.897 89.0014 126.113 90.1091 126.105C91.2168 126.097 92.3114 125.863 93.3265 125.418C96.3521 124.098 99.0841 122.185 101.362 119.792L101.474 119.679C101.538 121.323 101.703 122.962 101.968 124.586C102.041 124.934 102.21 125.255 102.456 125.511C102.702 125.768 103.015 125.95 103.359 126.037C103.725 126.088 104.097 126.038 104.436 125.891C104.774 125.744 105.066 125.507 105.279 125.205C106.145 123.905 106.864 122.512 107.422 121.052C107.927 119.927 108.41 118.891 108.735 118.284C109.298 117.237 110.004 116.275 110.834 115.425C110.945 115.28 111.09 115.164 111.256 115.087C111.423 115.011 111.605 114.976 111.788 114.986C112.102 115.054 112.382 115.403 112.584 115.921C112.584 116.011 112.652 116.562 112.719 117.147C112.955 119.398 113.404 123.55 113.931 124.732C114.09 125.084 114.337 125.389 114.647 125.617C114.958 125.846 115.322 125.991 115.704 126.037C116.054 126.017 116.395 125.919 116.702 125.749C117.008 125.58 117.274 125.344 117.477 125.058C118.212 123.74 118.86 122.375 119.419 120.973C119.991 119.679 120.541 118.351 120.956 117.597C121.411 116.748 122.011 115.986 122.73 115.347C122.851 115.205 123.006 115.095 123.181 115.028C123.355 114.962 123.543 114.939 123.728 114.964C123.911 115.057 124.069 115.194 124.186 115.363C124.304 115.532 124.378 115.727 124.402 115.932C124.402 116.067 124.514 116.821 124.592 117.552C124.738 118.858 124.929 120.647 125.109 121.536C125.212 122.259 125.461 122.953 125.841 123.575C126.221 124.198 126.724 124.737 127.318 125.158C127.913 125.579 128.587 125.875 129.299 126.026C130.011 126.177 130.747 126.181 131.461 126.037C136.241 125.396 141.561 122.211 144.928 119.522C145.119 120.93 145.385 122.327 145.724 123.708C145.905 124.499 146.364 125.199 147.018 125.678C147.671 126.158 148.475 126.385 149.282 126.319C151.403 126.319 152.278 125.193 153.277 123.674C154.15 121.938 154.77 120.084 155.118 118.171C155.256 119.04 155.443 119.901 155.679 120.748C156.801 124.811 159.528 126.566 163.927 125.958C168.327 125.351 175.15 120.433 179.044 114.998L179.313 115.144C179.661 115.324 179.987 115.504 180.301 115.695C181.502 116.427 181.681 116.821 181.423 118.25C181.367 118.588 181.289 118.925 181.21 119.263C181.132 119.6 181.019 120.107 180.941 120.546C180.797 121.177 180.78 121.831 180.892 122.468C181.003 123.106 181.241 123.715 181.592 124.259C181.933 124.723 182.365 125.112 182.861 125.404C183.356 125.696 183.906 125.885 184.476 125.958C191.209 127.084 198.942 121.783 201.512 119.612C201.668 120.69 201.919 121.752 202.264 122.785C202.536 123.639 203.056 124.392 203.758 124.947C204.46 125.502 205.311 125.835 206.203 125.902C211.129 126.251 214.058 125.069 218.312 121.052C218.337 122.266 218.472 123.475 218.716 124.664C218.798 125.012 218.977 125.33 219.231 125.58C219.485 125.831 219.804 126.005 220.152 126.082C220.516 126.137 220.888 126.087 221.225 125.94C221.563 125.793 221.852 125.554 222.06 125.25C222.933 123.952 223.655 122.558 224.215 121.097C224.72 119.972 225.202 118.936 225.528 118.329C226.087 117.28 226.794 116.317 227.626 115.47C227.738 115.325 227.883 115.209 228.049 115.132C228.215 115.056 228.398 115.021 228.58 115.031C228.883 115.099 229.175 115.448 229.366 115.966C229.366 116.056 229.445 116.607 229.512 117.192C229.691 119.751 230.093 122.289 230.713 124.777C230.843 125.128 231.071 125.435 231.369 125.662C231.667 125.889 232.023 126.026 232.396 126.058C232.768 126.09 233.142 126.015 233.474 125.842C233.806 125.669 234.082 125.405 234.27 125.081C235.014 123.762 235.667 122.393 236.223 120.985C236.784 119.702 237.345 118.374 237.76 117.609C238.215 116.76 238.815 115.998 239.534 115.358C239.655 115.216 239.81 115.106 239.985 115.04C240.159 114.973 240.347 114.951 240.532 114.975C240.715 115.068 240.873 115.206 240.99 115.374C241.108 115.543 241.182 115.739 241.206 115.943C241.206 116.078 241.318 116.832 241.397 117.563C241.531 118.869 241.722 120.658 241.902 121.547C242.008 122.27 242.259 122.963 242.641 123.585C243.022 124.207 243.526 124.745 244.121 125.166C244.716 125.587 245.39 125.882 246.102 126.034C246.815 126.185 247.55 126.19 248.265 126.049C255.279 125.103 262.607 118.97 263.348 118.025C263.489 117.82 263.565 117.576 263.565 117.327C263.565 117.078 263.489 116.835 263.348 116.629C263.268 116.517 263.168 116.421 263.051 116.348C262.935 116.274 262.805 116.225 262.67 116.202C262.534 116.179 262.395 116.183 262.261 116.214C262.127 116.245 262.001 116.302 261.889 116.382ZM178.393 111.881C178.036 111.358 177.899 110.715 178.012 110.091C178.066 109.774 178.187 109.473 178.367 109.207C178.547 108.941 178.782 108.717 179.055 108.55C179.294 109.713 179.073 110.923 178.438 111.926L178.393 111.881ZM71.6222 118.396C72.18 117.488 72.9182 116.705 73.7909 116.095C74.6636 115.485 75.652 115.062 76.6947 114.851C77.2374 114.762 77.7935 114.799 78.3193 114.961C78.845 115.123 79.3261 115.405 79.7248 115.785C78.0078 117.935 73.9901 122.661 73.1821 123.325C72.9228 123.587 72.5854 123.758 72.2209 123.811C71.8564 123.863 71.4847 123.796 71.162 123.618C70.6121 123.291 70.4101 122.729 70.4438 121.705C70.517 120.532 70.9048 119.4 71.566 118.43L71.6222 118.396Z" fill="#F8F3EA"/>
<path d="M202.611 115.617C202.789 115.625 202.967 115.597 203.133 115.533C203.299 115.469 203.45 115.371 203.577 115.245C203.728 115.066 203.841 114.858 203.911 114.634C203.98 114.409 204.004 114.173 203.981 113.94C203.981 112.916 203.543 112.274 202.757 112.241C202.591 112.228 202.423 112.249 202.265 112.303C202.107 112.358 201.961 112.443 201.837 112.556C201.651 112.751 201.508 112.983 201.415 113.237C201.322 113.49 201.283 113.76 201.298 114.03C201.272 114.252 201.292 114.476 201.357 114.69C201.423 114.903 201.533 115.1 201.68 115.268C201.801 115.39 201.947 115.484 202.108 115.544C202.268 115.605 202.44 115.629 202.611 115.617Z" fill="#F8F3EA"/>
<path d="M302.537 73.8443C302.38 73.8443 301.617 73.9118 301.617 73.5067C301.615 73.41 301.648 73.316 301.71 73.2417C301.772 73.1674 301.858 73.1177 301.953 73.1016C302.694 72.9328 302.817 72.3814 302.829 71.7737C302.829 69.1967 302.896 66.6309 302.918 64.0539C302.918 63.525 302.761 63.3337 302.267 63.1649C302.155 63.1649 301.807 63.0411 301.807 62.7373C301.807 62.6851 301.818 62.6334 301.838 62.5855C301.859 62.5375 301.889 62.4943 301.927 62.4584C301.965 62.4226 302.01 62.3949 302.058 62.3771C302.107 62.3592 302.159 62.3516 302.211 62.3547C302.672 62.3547 305.578 62.3547 306.577 62.3547C307.827 62.2403 309.088 62.4016 310.269 62.8273C311.349 63.2721 312.278 64.021 312.943 64.9835C313.608 65.946 313.982 67.081 314.017 68.2514C313.961 69.5334 313.482 70.7604 312.656 71.74C311.829 72.7196 310.701 73.3964 309.45 73.6642C307.151 73.8547 304.843 73.9148 302.537 73.8443ZM304.411 71.7287C304.411 72.5952 304.714 73.0003 305.533 73.0566C306.703 73.1543 307.881 73.0048 308.99 72.6177C309.674 72.4125 310.294 72.0348 310.792 71.5205C311.289 71.0063 311.646 70.3728 311.829 69.6806C312.045 68.8177 312.044 67.9143 311.824 67.0523C311.604 66.1904 311.173 65.397 310.57 64.7443C309.967 64.0916 309.211 63.6002 308.371 63.3145C307.53 63.0289 306.632 62.9581 305.758 63.1086C304.635 63.3112 304.478 63.435 304.456 64.6278C304.433 65.8207 304.433 70.5583 304.411 71.7287Z" fill="#F8F3EA"/>
<path d="M196.394 73.9905C195.525 73.9235 194.679 73.6794 193.907 73.2731C193.135 72.8667 192.454 72.3067 191.905 71.6274C191.073 70.4897 190.662 69.0972 190.742 67.6887C190.821 66.2801 191.388 64.9433 192.343 63.9076C192.964 63.2647 193.712 62.7578 194.538 62.4185C195.365 62.0792 196.252 61.915 197.145 61.9361C198.037 61.9573 198.916 62.1633 199.725 62.5413C200.535 62.9193 201.258 63.4611 201.848 64.1326C202.72 65.2034 203.196 66.543 203.196 67.925C203.196 69.307 202.72 70.6467 201.848 71.7174C201.218 72.5432 200.383 73.1881 199.425 73.5872C198.468 73.9862 197.422 74.1254 196.394 73.9905ZM201.422 68.5777C201.512 67.8598 201.459 67.131 201.267 66.4337C201.074 65.7364 200.745 65.0843 200.3 64.5153C199.894 63.9666 199.364 63.5236 198.752 63.2233C198.141 62.9231 197.466 62.7744 196.786 62.7899C196.105 62.8053 195.438 62.9844 194.84 63.312C194.243 63.6397 193.733 64.1064 193.353 64.6728C192.72 65.7163 192.43 66.9324 192.522 68.1501C192.508 68.9784 192.697 69.7976 193.073 70.5355C193.449 71.2733 194 71.9072 194.677 72.3813C195.535 73.0006 196.599 73.2622 197.646 73.1111C198.692 72.96 199.639 72.408 200.288 71.5711C200.918 70.6891 201.305 69.6568 201.411 68.5777H201.422Z" fill="#F8F3EA"/>
<path d="M219.703 63.9639C219.703 63.435 219.591 63.2887 219.12 63.1874C218.985 63.1874 218.817 63.1874 218.716 63.0861C218.59 62.9721 218.51 62.816 218.491 62.6472C218.491 62.546 218.66 62.3884 218.772 62.3434C218.884 62.2984 221.174 62.3434 222.139 62.3434C222.352 62.3434 222.588 62.3434 222.61 62.6697C222.632 62.9961 222.442 63.0974 222.217 63.1199C221.477 63.1986 221.241 63.4237 221.207 64.4703C221.151 65.9332 221.207 69.523 221.207 69.8494C221.205 70.2316 221.283 70.6099 221.438 70.9592C221.593 71.3085 221.82 71.6207 222.105 71.875C222.819 72.5218 223.747 72.8799 224.709 72.8799C225.671 72.8799 226.599 72.5218 227.312 71.875C227.891 71.34 228.245 70.6033 228.3 69.8156C228.463 67.9436 228.463 66.0609 228.3 64.1889C228.3 63.5025 227.929 63.0636 227.009 63.0636C226.751 63.0636 226.729 62.7935 226.762 62.5572C226.796 62.3209 226.919 62.2871 227.11 62.2984C228.098 62.2984 229.568 62.2984 230.556 62.2984C230.791 62.2984 230.87 62.4334 230.892 62.636C230.915 62.8385 230.892 63.0073 230.668 63.0861C229.927 63.3449 229.826 63.48 229.804 64.369C229.804 65.6969 229.893 69.5455 229.512 70.5583C228.951 72.0438 228.322 73.1241 226.976 73.5742C225.4 74.1085 223.692 74.1085 222.116 73.5742C221.391 73.3322 220.764 72.8618 220.327 72.2332C219.89 71.6047 219.668 70.8514 219.692 70.0857C219.658 69.1742 219.703 65.0104 219.703 63.9639Z" fill="#F8F3EA"/>
<path d="M251.385 73.9794C250.902 73.9794 249.959 73.8218 249.028 73.6981C248.809 73.6924 248.601 73.6028 248.447 73.4478C248.292 73.2929 248.203 73.0844 248.197 72.8653C248.13 72.1564 248.063 71.4474 248.007 70.7272C248.007 70.5359 248.007 70.3558 248.298 70.3108C248.59 70.2658 248.714 70.4346 248.792 70.7159C248.975 71.4294 249.411 72.0515 250.018 72.4659C250.626 72.8802 251.363 73.0582 252.092 72.9666C254.168 72.9666 255.279 71.7512 254.785 70.3221C254.676 70.0613 254.515 69.8264 254.31 69.6325C254.105 69.4386 253.861 69.2902 253.595 69.1967C252.9 68.8929 250.285 67.7676 249.757 67.3962C249.406 67.1748 249.113 66.8726 248.903 66.5147C248.692 66.1568 248.569 65.7536 248.545 65.3387C248.521 64.9237 248.596 64.5089 248.764 64.1289C248.932 63.7489 249.188 63.4145 249.51 63.1537C250.115 62.6509 250.833 62.3039 251.601 62.1431C252.37 61.9822 253.166 62.0124 253.921 62.2309C254.386 62.369 254.886 62.3164 255.312 62.0846C255.363 62.0476 255.423 62.0259 255.486 62.0223C255.548 62.0186 255.61 62.0331 255.665 62.064C255.719 62.0948 255.764 62.1408 255.793 62.1964C255.822 62.2519 255.834 62.3147 255.829 62.3772C255.907 63.165 255.952 63.9527 255.986 64.7404C255.989 64.8157 255.965 64.8896 255.917 64.9478C255.87 65.0061 255.802 65.0444 255.728 65.0555C255.369 65.1343 255.189 64.7292 255.144 64.6166C254.955 64.2481 254.69 63.9248 254.365 63.6687C254.04 63.4126 253.664 63.2297 253.263 63.1325C252.861 63.0353 252.443 63.0261 252.038 63.1055C251.632 63.1849 251.249 63.351 250.913 63.5926C250.726 63.7231 250.572 63.8972 250.467 64.1001C250.361 64.3029 250.306 64.5284 250.306 64.7573C250.306 64.9862 250.361 65.2117 250.467 65.4145C250.572 65.6173 250.726 65.7915 250.913 65.922C251.385 66.2934 254.28 67.3624 255.256 68.0601C255.759 68.329 256.17 68.7429 256.437 69.2484C256.703 69.7539 256.811 70.3278 256.749 70.896C256.367 73.2029 254.65 74.1032 251.385 73.9794Z" fill="#F8F3EA"/>
<path d="M277.713 69.8381C277.621 69.8223 277.527 69.8396 277.446 69.887C277.366 69.9344 277.305 70.0088 277.275 70.097C276.983 70.7722 276.658 71.4136 276.377 72.0888C276.097 72.764 276.299 72.9553 276.927 73.0791C277.095 73.0791 277.252 73.0791 277.421 73.1691C277.467 73.1708 277.511 73.1836 277.551 73.2065C277.59 73.2294 277.624 73.2617 277.648 73.3006C277.673 73.3394 277.687 73.3836 277.69 73.4293C277.694 73.4751 277.686 73.521 277.668 73.563C277.637 73.631 277.593 73.6915 277.536 73.7401C277.48 73.7887 277.414 73.8243 277.342 73.8443C276.299 73.8443 275.266 73.8443 274.222 73.8443C274.153 73.8339 274.088 73.8056 274.033 73.7622C273.978 73.7188 273.935 73.6618 273.908 73.5968C273.908 73.4505 273.964 73.1804 274.054 73.1579C274.907 72.8878 275.176 72.1338 275.513 71.4361C276.635 69.0617 279.351 63.0861 279.598 62.4335C279.699 62.1746 279.834 61.9608 280.159 61.9608C280.485 61.9608 280.63 62.1859 280.743 62.4447C282.074 65.4456 283.414 68.4465 284.76 71.4474C284.944 71.8433 285.166 72.2202 285.422 72.5727C285.58 72.7815 285.784 72.951 286.017 73.0678C286.23 73.1804 286.343 73.3042 286.309 73.5405C286.275 73.7768 286.073 73.8556 285.849 73.8443C285.097 73.8443 283.032 73.8443 282.74 73.8443C282.449 73.8443 282.28 73.8443 282.246 73.5742C282.237 73.5136 282.24 73.4517 282.257 73.3925C282.273 73.3334 282.302 73.2784 282.341 73.2315C282.381 73.1845 282.43 73.1466 282.485 73.1203C282.54 73.094 282.601 73.0799 282.662 73.0791C282.766 73.0955 282.872 73.0955 282.976 73.0791C283.046 73.0685 283.112 73.0417 283.169 73.0008C283.226 72.9599 283.273 72.9061 283.306 72.8437C283.339 72.7813 283.356 72.712 283.358 72.6415C283.359 72.5709 283.343 72.5011 283.313 72.4377C282.976 71.6387 282.628 70.8397 282.258 70.052C282.258 69.9732 282.044 69.9169 281.932 69.9169L277.713 69.8381ZM281.708 68.8816L279.8 64.3803L277.802 68.8816H281.708Z" fill="#F8F3EA"/>
<path d="M335.172 69.8381H333.062C332.999 69.8402 332.937 69.8564 332.88 69.8856C332.824 69.9148 332.775 69.9563 332.737 70.0069C332.4 70.6933 332.063 71.391 331.771 72.0887C331.48 72.7864 331.704 72.9327 332.31 73.0678L332.804 73.1466C332.853 73.1503 332.9 73.1654 332.942 73.1908C332.984 73.2161 333.02 73.2509 333.046 73.2925C333.072 73.334 333.088 73.3811 333.093 73.4301C333.098 73.479 333.091 73.5283 333.073 73.5742C333.039 73.6415 332.99 73.7 332.93 73.7449C332.87 73.7899 332.8 73.82 332.725 73.833C331.704 73.833 330.683 73.833 329.65 73.833C329.527 73.833 329.325 73.698 329.314 73.6079C329.303 73.5179 329.37 73.1691 329.471 73.1353C330.279 72.8765 330.593 72.1788 330.874 71.5148C331.996 69.1066 333.118 66.7097 334.24 64.3127C334.51 63.7163 334.734 63.0973 334.981 62.4897C335.093 62.2196 335.217 61.9945 335.565 61.9945C335.913 61.9945 336.025 62.2308 336.137 62.5009C337.45 65.438 338.763 68.3864 340.087 71.3235C340.28 71.7467 340.513 72.1499 340.783 72.5276C340.955 72.7547 341.173 72.9427 341.423 73.079C341.636 73.1916 341.771 73.3491 341.681 73.5517C341.639 73.6282 341.579 73.6936 341.507 73.7425C341.435 73.7914 341.352 73.8225 341.266 73.833C340.547 73.833 339.829 73.833 339.122 73.7655C338.797 73.7655 338.471 73.7655 338.157 73.7655C337.843 73.7655 337.708 73.7655 337.641 73.5067C337.574 73.2478 337.776 73.0453 338.067 73.0003C338.729 72.9102 338.875 72.6852 338.606 72.0662L337.719 70.0406C337.694 69.9565 337.639 69.8842 337.565 69.8368C337.491 69.7894 337.402 69.7699 337.315 69.7818L335.172 69.8381ZM337.102 68.8815L335.206 64.3802L333.208 68.8815H337.102Z" fill="#F8F3EA"/>
<path d="M167.698 69.6806C167.698 70.5358 167.698 71.3461 167.698 72.1563C167.698 72.6965 167.968 72.8878 168.517 72.9891C168.788 73.0401 169.062 73.0739 169.337 73.0903C169.584 73.0903 169.685 73.2479 169.673 73.4955C169.662 73.743 169.505 73.7993 169.292 73.7993H165.285C165.038 73.7993 164.859 73.7993 164.836 73.4617C164.814 73.1241 164.949 73.0903 165.218 73.0678C165.813 73.0678 165.981 72.8428 166.004 72.1901C166.004 70.4908 166.105 65.033 166.082 64.0089C166.083 63.8802 166.057 63.7528 166.005 63.635C165.953 63.5172 165.877 63.4118 165.781 63.3257C165.686 63.2396 165.573 63.1747 165.451 63.1354C165.329 63.096 165.2 63.0831 165.072 63.0974C165.021 63.103 164.97 63.0969 164.921 63.0795C164.873 63.0621 164.829 63.0339 164.794 62.997C164.758 62.96 164.731 62.9154 164.715 62.8665C164.699 62.8176 164.695 62.7657 164.702 62.7148C164.696 62.6662 164.702 62.617 164.718 62.5709C164.734 62.5248 164.761 62.4829 164.795 62.4483C164.83 62.4137 164.871 62.3874 164.917 62.3712C164.963 62.3549 165.012 62.3493 165.061 62.3547C167.004 62.1352 168.965 62.1352 170.908 62.3547C171.369 62.4119 171.813 62.5642 172.212 62.802C172.612 63.0398 172.958 63.3579 173.229 63.7363C173.5 64.1147 173.69 64.5452 173.787 65.0008C173.883 65.4563 173.885 65.9271 173.792 66.3834C173.681 67.0872 173.362 67.7415 172.875 68.2612C172.389 68.7809 171.758 69.1421 171.065 69.298C170.297 69.4674 169.516 69.569 168.731 69.6018C168.394 69.7706 168.035 69.6806 167.698 69.6806ZM167.597 68.3752C167.597 68.634 167.698 68.7803 167.934 68.7916C168.52 68.8422 169.11 68.8422 169.696 68.7916C170.314 68.6541 170.872 68.3191 171.285 67.837C171.697 67.3548 171.943 66.7515 171.985 66.1175C172.026 65.4835 171.862 64.853 171.516 64.3206C171.17 63.7882 170.661 63.3827 170.066 63.1649C169.661 63.0762 169.246 63.0384 168.832 63.0524C168.679 63.0296 168.523 63.043 168.377 63.0915C168.23 63.14 168.097 63.2222 167.988 63.3316C167.879 63.441 167.797 63.5746 167.748 63.7215C167.7 63.8684 167.687 64.0247 167.709 64.1777C167.709 64.8191 167.62 67.6662 167.597 68.3752Z" fill="#F8F3EA"/>
<path d="M285.052 28.4709C279.317 32.2745 274.503 32.5334 268.869 31.9144C263.236 31.2955 261.249 26.119 247.019 26.5579C236.032 26.8955 221.028 30.6653 221.028 30.6653C221.028 30.6653 216.415 32.0045 217.448 32.916C218.48 33.8275 218.57 34.559 216.415 34.559C214.26 34.559 216.213 36.4045 221.028 38.869C225.842 41.3335 238.838 46.1386 248.702 45.711C258.376 45.2834 266.928 36.5621 273.56 40.0281C280.361 43.5616 281.932 45.0921 285.905 44.0568C289.878 43.0215 289.844 32.9835 289.844 32.9835C289.844 32.9835 290.787 24.6786 285.052 28.4709ZM285.804 41.266C283.346 43.8205 279.789 41.8511 278.442 40.9734C275.85 39.2966 272.045 36.9447 267.298 38.0363C263.931 38.8015 257.68 40.8833 254.302 41.9074C242.429 45.531 225.292 39.8818 221.151 35.9319C221.151 35.9319 219.804 34.514 222.273 33.5687C228.199 31.318 240.689 29.3149 244.292 28.9661C255.268 27.9083 260.003 29.63 264.492 31.7456C266.602 32.7359 268.712 33.3324 273.47 33.2761C277.707 33.0397 281.877 32.1123 285.815 30.5303C285.815 30.5303 287.656 29.9114 287.723 31.5206C287.79 33.1298 288.273 38.7114 285.804 41.266Z" fill="#F8F3EA"/>
<path d="M283.773 33.4787C281.528 34.6828 275.008 35.3918 272.472 35.2342C268.491 35.0218 264.566 34.1983 260.834 32.7922C254.594 30.294 245.369 31.183 237.514 32.5672C238.015 33.0296 238.416 33.5913 238.691 34.217C238.965 34.8426 239.107 35.5185 239.107 36.202C239.107 37.2525 238.769 38.2748 238.142 39.1166H238.299C247.748 40.5458 252.888 38.5652 258.197 37.3161C262.76 36.2262 267.486 35.9897 272.135 36.6184C274.388 37.0023 276.58 37.6834 278.655 38.644C280.754 39.7018 282.134 40.2644 283.537 39.8818C285.321 39.3754 285.681 36.292 285.725 34.469C285.748 33.5575 285.647 32.4659 283.773 33.4787Z" fill="#F8F3EA"/>
<path d="M229.164 36.202C229.178 35.416 229.378 34.6446 229.748 33.9513C228.625 34.1651 227.604 34.3564 227.077 34.4802C224.765 35.0316 224.664 36.0782 226.931 36.6183L229.254 37.2035C229.193 36.8732 229.163 36.5379 229.164 36.202Z" fill="#F8F3EA"/>
<path d="M228.827 38.7452C229.204 39.5193 229.737 40.2068 230.392 40.7645C231.046 41.3223 231.809 41.7382 232.632 41.9861C233.551 42.2163 234.513 42.2166 235.433 41.9871C236.352 41.7575 237.202 41.3052 237.906 40.6697C238.611 40.0342 239.149 39.235 239.474 38.3422C239.799 37.4495 239.9 36.4904 239.769 35.5492C239.722 34.7712 239.508 34.0124 239.144 33.3237C238.78 32.635 238.274 32.0322 237.658 31.5559C237.043 31.0796 236.333 30.7406 235.577 30.5618C234.82 30.3829 234.034 30.3684 233.271 30.519C232.363 30.6251 231.492 30.9491 230.735 31.4634C229.977 31.9778 229.354 32.6675 228.918 33.4743C228.482 34.2811 228.246 35.1812 228.231 36.0986C228.215 37.016 228.419 37.9238 228.827 38.7452ZM238.299 35.9318C238.299 36.7158 238.067 37.4821 237.633 38.1337C237.198 38.7854 236.58 39.2931 235.858 39.5925C235.135 39.892 234.341 39.9698 233.574 39.816C232.807 39.6623 232.104 39.2839 231.551 38.7288C230.999 38.1737 230.624 37.4668 230.473 36.6977C230.322 35.9286 230.402 35.1318 230.702 34.4081C231.003 33.6845 231.511 33.0667 232.162 32.6328C232.813 32.1989 233.578 31.9684 234.36 31.9707C234.878 31.9707 235.391 32.0732 235.87 32.2724C236.349 32.4716 236.783 32.7636 237.149 33.1315C237.515 33.4995 237.805 33.9363 238.002 34.4168C238.2 34.8973 238.301 35.4122 238.299 35.9318Z" fill="#F8F3EA"/>
<path d="M234.36 33.76C233.914 33.7488 233.475 33.8712 233.098 34.1116C232.722 34.352 232.425 34.6995 232.247 35.1097C232.068 35.5198 232.016 35.974 232.096 36.4142C232.176 36.8545 232.385 37.2607 232.697 37.5811C233.008 37.9016 233.408 38.1216 233.845 38.2131C234.282 38.3046 234.736 38.2634 235.149 38.0948C235.563 37.9263 235.917 37.6379 236.166 37.2667C236.415 36.8955 236.548 36.4582 236.548 36.0106C236.549 35.4234 236.32 34.8593 235.911 34.4388C235.502 34.0183 234.945 33.7747 234.36 33.76ZM234.36 36.9109C234.174 36.9109 233.991 36.8555 233.836 36.7516C233.681 36.6477 233.56 36.5001 233.489 36.3274C233.418 36.1546 233.399 35.9646 233.435 35.7812C233.472 35.5979 233.562 35.4294 233.693 35.2972C233.825 35.165 233.993 35.075 234.176 35.0385C234.359 35.002 234.548 35.0208 234.721 35.0923C234.893 35.1639 235.04 35.285 235.144 35.4405C235.247 35.5959 235.303 35.7787 235.303 35.9656C235.294 36.2104 235.191 36.4423 235.015 36.6123C234.839 36.7824 234.604 36.8773 234.36 36.8772V36.9109Z" fill="#F8F3EA"/>
</svg>
