<svg width="536" height="192" viewBox="0 0 536 192" fill="none" xmlns="http://www.w3.org/2000/svg">
<path d="M499.244 123.026C499.156 122.913 499.045 122.819 498.918 122.752C498.791 122.684 498.652 122.644 498.509 122.634C498.304 122.627 498.099 122.661 497.908 122.735C497.716 122.808 497.541 122.919 497.393 123.062C494.122 126.568 489.9 129.043 485.244 130.185C481.531 131.075 478.659 130.743 476.714 129.175C476.112 128.736 475.645 128.138 475.365 127.448C475.084 126.759 475 126.004 475.124 125.27C476.18 125.092 479.87 124.284 481.21 122.895C481.666 122.523 481.986 122.01 482.119 121.436C482.252 120.863 482.191 120.261 481.946 119.726C481.627 119.213 481.156 118.812 480.599 118.58C480.042 118.348 479.426 118.296 478.837 118.432C477.735 118.605 476.685 119.024 475.765 119.657C474.845 120.289 474.079 121.12 473.522 122.088C471.544 125.323 468.771 127.996 465.466 129.852C464.063 130.791 462.348 131.141 460.69 130.825C459.032 130.51 457.564 129.555 456.603 128.166C455.81 127.135 455.103 126.039 454.492 124.89C454.159 124.308 453.827 123.703 453.471 123.157C453.319 122.928 453.245 122.657 453.26 122.383C453.275 122.109 453.378 121.847 453.554 121.637C457.013 115.899 459.529 109.642 461.005 103.105C461.56 100.902 461.669 98.6088 461.325 96.3623C461.182 95.638 460.881 94.9545 460.441 94.3612C460.002 93.7678 459.437 93.2795 458.786 92.9314C458.074 92.5661 457.288 92.3688 456.488 92.3544C455.688 92.34 454.896 92.5089 454.171 92.8483C451.051 94.1779 449.425 98.4754 449.259 98.9503C447.681 103.319 447.397 108.175 448.346 114.241C448.571 115.654 449.034 117.601 449.342 118.895C449.342 119.073 449.425 119.239 449.461 119.393C448.04 119.041 446.549 119.093 445.155 119.541C443.762 119.99 442.52 120.819 441.571 121.934C439.319 124.336 436.748 126.417 433.93 128.119C431.657 129.626 429.042 130.54 426.325 130.778C422.885 130.671 422.125 129.591 421.58 126.552C421.508 125.994 421.449 125.436 421.39 124.878C421.322 123.945 421.195 123.017 421.01 122.1C420.901 121.459 420.624 120.859 420.207 120.36C419.79 119.862 419.248 119.483 418.637 119.263C418.016 119.078 417.356 119.067 416.729 119.23C416.101 119.393 415.531 119.725 415.078 120.189C414.018 121.19 413.129 122.356 412.444 123.643C411.625 125.127 410 128.392 409.312 129.722C409.312 127.917 409.146 123.168 409.074 121.411C409.074 120.984 409.015 119.856 407.888 119.856C407.437 119.856 406.702 120.082 406.702 121.411C406.702 121.411 406.702 122.112 406.702 123.157L406.559 123.287C401.196 128.166 398.622 129.745 397.4 130.22C393.983 131.526 391.076 130.434 389.237 127.122C388.869 126.445 388.051 124.593 387.754 123.75L387.837 121.922C387.85 121.666 387.798 121.411 387.686 121.181C387.574 120.95 387.406 120.752 387.196 120.604C386.963 120.443 386.69 120.351 386.407 120.336C386.125 120.321 385.843 120.385 385.595 120.521C384.435 119.508 382.968 118.914 381.43 118.835C378.761 118.835 375.878 120.889 374.751 122.029C372.115 124.671 369.075 126.875 365.745 128.558C363.072 130.008 360.089 130.794 357.049 130.849C356.607 130.872 356.166 130.797 355.756 130.631C355.346 130.465 354.978 130.211 354.676 129.888C354.449 129.514 354.305 129.096 354.251 128.663C354.198 128.229 354.238 127.788 354.367 127.371C354.522 126.564 354.7 125.768 354.878 124.997C355.129 124.119 355.071 123.182 354.712 122.343C354.353 121.504 353.716 120.814 352.908 120.39C352.457 120.106 351.983 119.832 351.508 119.571L351.188 119.381C351.831 117.81 352.161 116.129 352.161 114.431C352.176 114.103 352.106 113.777 351.959 113.484C351.811 113.19 351.591 112.94 351.318 112.757C350.985 112.565 350.61 112.457 350.225 112.443C349.841 112.428 349.459 112.508 349.112 112.674C348.51 112.951 347.977 113.357 347.55 113.864C347.123 114.371 346.814 114.966 346.644 115.606C346.535 116.452 346.603 117.31 346.844 118.128C347.085 118.946 347.494 119.704 348.044 120.355C346.561 122.99 337.911 128.511 337.828 128.558L337.662 128.665C335.562 129.971 333.628 131.241 332.074 132.226C332.252 130.161 332.347 127.988 332.347 125.756C332.39 125.495 332.332 125.226 332.184 125.006C332.037 124.785 331.811 124.629 331.552 124.569C331.429 124.524 331.298 124.504 331.168 124.51C331.037 124.517 330.909 124.549 330.79 124.605C330.672 124.662 330.566 124.741 330.479 124.839C330.392 124.937 330.325 125.051 330.283 125.175C328.859 129.33 323.378 135.693 320.186 137.592C316.057 140.038 310.41 139.967 307.728 138.293C304.062 136.109 302.271 132.464 301.796 126.089C301.395 120.685 302.696 115.29 305.515 110.664C308.335 106.037 312.531 102.41 317.517 100.292C321.076 98.8316 327.874 97.1458 331.196 100.114C331.87 100.653 332.383 101.366 332.682 102.175C332.981 102.985 333.054 103.86 332.893 104.708C332.323 108.27 326.189 119.963 326.142 120.07C326.061 120.186 326.004 120.317 325.975 120.455C325.945 120.594 325.945 120.737 325.972 120.876C326 121.014 326.056 121.146 326.136 121.263C326.216 121.379 326.319 121.478 326.439 121.554C326.681 121.712 326.977 121.769 327.261 121.711C327.545 121.653 327.795 121.486 327.957 121.245C328.23 120.747 334.673 108.851 335.076 104.862C335.657 99.2827 331.659 96.6947 327.732 96.1248C324.007 95.6772 320.232 96.2903 316.84 97.8937L316.639 97.9649C308.001 101.325 298.142 110.786 298.842 126.457C298.84 130.693 300.303 134.799 302.983 138.079C304.199 139.39 305.666 140.443 307.296 141.177C308.926 141.911 310.687 142.311 312.474 142.353C316.9 142.519 321.242 139.539 321.42 139.421C324.496 137.301 327.131 134.604 329.179 131.479C329.096 132.511 329.001 133.544 328.847 134.506C320.281 140.62 314.147 146.472 311.122 151.399C310.683 152.064 306.933 157.905 309.876 161.003C310.272 161.372 310.74 161.656 311.25 161.838C311.76 162.02 312.302 162.095 312.842 162.06C315.51 161.889 318.061 160.903 320.15 159.234C323.413 156.718 330.034 148.431 331.884 135.04C334.257 133.39 336.915 131.645 339.881 129.864C339.952 129.864 347.569 125.483 350.156 121.376L350.345 121.483C350.701 121.673 351.057 121.863 351.401 122.076C352.647 122.836 352.825 123.263 352.588 124.688C352.517 125.06 352.434 125.428 352.339 125.792C352.232 126.291 352.113 126.789 352.03 127.288C351.532 130.256 352.766 132.215 355.518 132.832C358.271 133.449 364.832 133.081 371.69 127.81C371.559 128.47 371.578 129.15 371.745 129.801C371.911 130.452 372.22 131.057 372.651 131.574C373.124 132.076 373.713 132.455 374.367 132.677C375.02 132.898 375.719 132.956 376.4 132.844C378.393 132.571 379.959 130.861 380.932 129.733L381.395 129.223C382.107 128.475 383.34 126.932 384.337 125.661C384.752 125.139 385.168 124.641 385.452 124.296L385.701 124.949C386.086 126.031 386.526 127.093 387.018 128.131C389.213 132.381 393.663 134.007 398.349 132.274C400.983 131.277 405.195 127.786 406.891 126.338C406.871 128.037 407.01 129.734 407.307 131.407C407.372 131.775 407.541 132.116 407.793 132.392C408.045 132.667 408.37 132.865 408.73 132.963C409.135 133.003 409.543 132.927 409.906 132.744C410.27 132.561 410.574 132.279 410.783 131.93C411.103 131.502 412.124 129.484 413.441 126.896L414.437 124.937C414.961 123.923 415.598 122.971 416.335 122.1C416.505 121.876 416.73 121.7 416.988 121.59C417.246 121.48 417.528 121.439 417.807 121.471C418.4 121.625 418.649 122.361 418.768 122.955C418.923 123.851 419.03 124.754 419.088 125.661C419.088 126.006 419.088 126.35 419.183 126.694C419.527 130.113 421.117 132.143 423.929 132.725C427.906 133.157 431.908 132.164 435.224 129.923C436.113 129.377 437.003 128.736 437.869 128.202L438.391 127.846C438.391 128.107 438.391 128.356 438.391 128.618C438.316 129.29 438.421 129.971 438.696 130.589C438.972 131.207 439.407 131.741 439.958 132.134C440.508 132.527 441.153 132.767 441.827 132.827C442.501 132.887 443.178 132.766 443.79 132.476C445.44 131.87 446.89 130.818 447.978 129.437C448.951 128.249 449.852 127.157 450.802 125.946C451.098 125.566 451.407 125.187 451.703 124.759C452.593 126.362 453.576 127.912 454.646 129.401C455.585 130.702 456.862 131.721 458.338 132.349C459.814 132.977 461.434 133.189 463.022 132.963C466.739 131.989 470.092 129.951 472.668 127.098C472.739 127.252 472.81 127.418 472.893 127.573C473.215 128.396 473.655 129.167 474.198 129.864C476.203 132.238 479.11 133.247 482.871 132.868C488.803 132.286 494.131 129.615 499.007 124.724C499.137 124.63 499.246 124.511 499.329 124.374C499.411 124.237 499.465 124.084 499.488 123.925C499.51 123.767 499.5 123.605 499.458 123.451C499.416 123.296 499.343 123.152 499.244 123.026ZM476.002 122.777C476.376 122.223 476.86 121.753 477.423 121.393C477.986 121.034 478.617 120.794 479.276 120.687C479.525 120.687 479.632 120.758 479.644 120.782C479.656 120.806 479.644 120.925 479.431 121.127C478.532 122.084 477.31 122.672 476.002 122.777ZM450.244 122.421C448.731 124.924 446.883 127.209 444.751 129.211C444.332 129.624 443.825 129.938 443.269 130.129C442.712 130.32 442.12 130.384 441.536 130.315C441.301 130.222 441.102 130.057 440.968 129.844C440.833 129.63 440.77 129.38 440.788 129.128C440.709 127.325 441.335 125.562 442.532 124.213C443.606 122.701 445.22 121.659 447.041 121.305H447.42C448.467 121.312 449.474 121.71 450.244 122.421ZM458.822 101.325C457.92 106.94 453.4 116.485 452 119.132C449.817 111.617 449.627 105.42 451.502 99.6745C451.881 98.4873 453.412 95.7331 455.18 94.9258C455.545 94.7418 455.946 94.6372 456.355 94.6188C456.764 94.6004 457.172 94.6686 457.553 94.819C457.864 94.9658 458.141 95.1788 458.362 95.4433C458.583 95.7078 458.744 96.0173 458.834 96.3504C459.188 97.9899 459.184 99.6868 458.822 101.325ZM383.934 122.171L383.768 122.385C381.785 125.032 379.526 127.459 377.029 129.627C376.705 129.857 376.321 129.986 375.924 129.999C375.527 130.012 375.136 129.907 374.798 129.698C374.6 129.568 374.436 129.392 374.321 129.186C374.205 128.979 374.141 128.747 374.134 128.511C374.134 126.136 377.527 121.578 380.73 121.198H381.359C381.831 121.181 382.302 121.258 382.744 121.425C383.186 121.593 383.591 121.846 383.934 122.171ZM349.337 118.052C348.988 117.528 348.853 116.891 348.957 116.271C349.092 115.615 349.469 115.034 350.013 114.645C350.164 115.824 349.927 117.02 349.337 118.052ZM318.371 157.442C316.662 158.76 313.732 159.484 312.439 158.475C310.647 157.145 312.439 153.524 312.925 152.705L313.044 152.527C314.942 149.417 319.142 144.3 328.467 137.45C326.225 149.998 321.254 155.341 318.442 157.43L318.371 157.442Z" fill="#333F48"/>
<path d="M276.869 122.776L276.667 122.931C273.652 125.649 270.219 127.862 266.499 129.484C263.236 130.671 260.887 130.909 259.535 130.078C259.05 129.727 258.654 129.27 258.376 128.74C258.098 128.211 257.946 127.624 257.933 127.027C257.874 126.445 257.826 125.839 257.779 125.281C257.684 124.237 257.589 123.156 257.411 122.1C257.334 121.447 257.082 120.827 256.68 120.307C256.279 119.786 255.744 119.384 255.133 119.144C254.516 118.953 253.859 118.934 253.232 119.089C252.605 119.244 252.031 119.567 251.574 120.022C250.671 120.804 249.926 121.751 249.379 122.812C248.679 124.26 247.575 126.694 246.757 128.463C246.413 129.223 246.128 129.852 245.938 130.244C245.938 130.125 245.938 129.983 245.867 129.876C245.796 129.769 245.867 129.211 245.772 128.689C245.668 126.31 245.326 123.947 244.752 121.637C244.614 121.045 244.318 120.502 243.894 120.067C243.471 119.631 242.937 119.32 242.349 119.166C241.762 119.012 241.144 119.021 240.561 119.193C239.979 119.365 239.455 119.693 239.045 120.141C238.021 121.132 237.153 122.273 236.47 123.524C235.818 124.712 235.284 125.899 234.738 127.086C234.477 127.679 234.216 128.273 233.943 128.855C233.849 129.04 233.766 129.23 233.694 129.425C233.599 129.638 233.469 129.947 233.338 130.208C233.267 128.368 233.03 124.344 232.911 122.171V121.482C232.911 121.019 232.911 120.07 231.724 119.999C230.538 119.927 230.538 121.008 230.538 121.637C230.538 121.637 230.609 122.931 230.716 124.605C230.561 124.698 230.421 124.814 230.301 124.949C227.928 127.323 224.368 130.244 220.809 130.481C218.602 130.636 217.594 130.695 216.502 129.14C215.704 127.486 215.298 125.67 215.316 123.833C215.339 123.59 215.287 123.345 215.166 123.132C215.045 122.92 214.861 122.75 214.64 122.646C214.37 122.548 214.078 122.529 213.798 122.592C213.519 122.655 213.263 122.797 213.062 123.002C212.945 123.081 212.834 123.168 212.729 123.263C209.111 126.682 201.612 131.288 196.333 130.802C195.905 130.805 195.482 130.716 195.091 130.542C194.7 130.368 194.351 130.113 194.067 129.793C193.847 129.443 193.703 129.051 193.644 128.642C193.585 128.233 193.612 127.816 193.723 127.418C193.865 126.682 194.031 125.946 194.197 125.21L194.268 124.913C194.507 124.053 194.447 123.137 194.098 122.315C193.749 121.494 193.131 120.815 192.346 120.39C191.872 120.094 191.397 119.82 190.946 119.571L190.638 119.393C190.721 119.049 190.816 118.705 190.899 118.36C191.172 117.339 191.421 116.366 191.599 115.357C191.736 114.826 191.686 114.265 191.457 113.767C191.228 113.269 190.834 112.866 190.341 112.626C189.809 112.412 189.22 112.381 188.668 112.537C188.116 112.694 187.632 113.03 187.292 113.493C185.465 115.475 185.477 117.826 187.292 120.117C184.208 124.208 180.194 127.505 175.582 129.733C173.209 130.778 171.062 130.92 169.531 130.232C168.899 129.902 168.346 129.44 167.91 128.877C167.474 128.313 167.165 127.662 167.004 126.967C166.618 125.517 166.336 124.041 166.162 122.551C166.078 121.934 165.995 121.364 165.901 120.746C165.874 120.342 165.704 119.961 165.421 119.672C165.138 119.382 164.761 119.203 164.358 119.168C163.963 119.131 163.567 119.231 163.236 119.451C162.906 119.672 162.661 119.999 162.543 120.378V120.473C162.153 123.028 161.497 125.535 160.585 127.953C159.897 129.698 158.616 130.932 157.655 130.766C156.694 130.6 156.373 129.923 156.112 128.546C155.911 127.43 155.555 124.985 155.389 123.418C155.397 123.113 155.331 122.812 155.196 122.539C155.062 122.266 154.863 122.03 154.617 121.851C154.399 121.709 154.137 121.649 153.879 121.681C153.621 121.714 153.382 121.837 153.206 122.029C153.073 122.194 152.975 122.384 152.915 122.588C152.856 122.792 152.838 123.005 152.861 123.216C149.928 125.774 146.624 127.871 143.061 129.436C139.799 130.624 137.461 130.861 136.097 130.03C135.605 129.675 135.204 129.207 134.928 128.667C134.651 128.126 134.507 127.527 134.507 126.92C134.436 126.338 134.389 125.733 134.341 125.186C134.258 124.13 134.163 123.05 133.973 121.993C133.934 121.322 133.697 120.677 133.292 120.14C132.888 119.604 132.333 119.199 131.699 118.977C131.065 118.754 130.379 118.725 129.728 118.892C129.077 119.059 128.49 119.415 128.041 119.915C127.139 120.695 126.398 121.642 125.858 122.705C125.146 124.165 124.031 126.611 123.212 128.404L122.417 130.137C122.383 130.016 122.36 129.893 122.346 129.769C122.346 129.508 122.275 129.092 122.239 128.582C122.139 126.207 121.801 123.849 121.231 121.542C121.093 120.95 120.797 120.407 120.373 119.972C119.95 119.536 119.416 119.225 118.829 119.071C118.241 118.917 117.623 118.926 117.041 119.098C116.458 119.27 115.934 119.598 115.524 120.046C114.506 121.05 113.646 122.203 112.973 123.465C112.321 124.652 111.787 125.839 111.253 127.027C110.992 127.62 110.719 128.214 110.446 128.795L110.197 129.365C110.114 129.579 109.972 129.888 109.853 130.149C109.782 128.368 109.556 124.605 109.426 122.337V121.423C109.426 120.96 109.426 120.01 108.239 119.939C107.053 119.868 107.053 120.948 107.053 121.577C107.053 121.577 107.053 122.219 107.136 123.168C106.685 123.631 106.175 124.118 105.688 124.593C103.539 126.893 100.959 128.748 98.0952 130.054C91.7833 132.048 90.2054 128.285 88.6037 124.296L88.3426 123.679L88.4257 121.839C88.4381 121.565 88.3764 121.293 88.2471 121.052C88.1177 120.81 87.9256 120.608 87.6909 120.467C87.4563 120.326 87.1879 120.251 86.9142 120.25C86.6404 120.249 86.3715 120.322 86.1359 120.462C85.1907 119.652 84.0439 119.114 82.8175 118.905C81.5912 118.696 80.3311 118.824 79.1714 119.274C77.446 119.905 75.9187 120.982 74.746 122.397L74.6629 122.48C74.0341 123.168 73.2273 124.118 72.4087 125.08C71.59 126.041 70.7595 127.015 70.1307 127.703C65.8833 132.452 58.7646 138.055 51.5629 139.575C45.512 140.881 41.7391 136.013 40.7306 134.482C39.1667 131.958 38.3711 129.034 38.4408 126.065C38.334 108.079 54.0188 100.315 54.173 100.244C55.3595 99.7099 61.2917 97.1456 66.0375 99.1282C67.0814 99.6533 67.9635 100.452 68.5902 101.438C69.217 102.425 69.5648 103.563 69.5968 104.732C69.7392 108.507 67.485 113.635 62.8341 120.034C62.7141 120.216 62.6528 120.431 62.6585 120.649C62.6641 120.868 62.7364 121.079 62.8657 121.255C62.9949 121.43 63.1748 121.563 63.3813 121.633C63.5878 121.703 63.8109 121.709 64.0205 121.649C64.2779 121.601 64.5073 121.457 64.6612 121.245C69.2646 114.965 71.7799 109.278 71.7799 104.779C71.7634 102.697 71.0092 100.688 69.6513 99.1095C68.2935 97.5312 66.4202 96.4862 64.3646 96.1603C60.0104 95.3174 55.5256 96.9557 53.2358 98.0123C49.3205 99.7218 36.5069 106.904 35.5933 125.151C35.4419 128.867 36.3558 132.55 38.2272 135.764C40.0425 138.518 44.1595 141.593 46.0934 141.961C47.0971 142.163 48.1187 142.262 49.1425 142.258C53.4849 142.258 57.3646 140.477 61.007 138.471C65.1971 135.984 68.959 132.837 72.1477 129.152C72.1653 129.753 72.3185 130.344 72.5958 130.878C72.8731 131.413 73.2675 131.877 73.7494 132.238C74.3432 132.626 75.0254 132.858 75.7327 132.912C76.4399 132.966 77.1494 132.84 77.7952 132.547C79.3512 131.704 80.7196 130.552 81.8172 129.163C82.3274 128.558 83.2172 127.478 84.0714 126.433L85.8392 124.284L86.124 125.008C86.4562 125.863 86.7647 126.67 87.1087 127.466C87.5274 128.56 88.1635 129.558 88.9787 130.4C89.7938 131.241 90.771 131.908 91.8512 132.361C92.9314 132.814 94.0921 133.043 95.2633 133.034C96.4344 133.025 97.5915 132.779 98.6647 132.309C101.863 130.917 104.752 128.899 107.16 126.374L107.278 126.255C107.346 127.989 107.521 129.718 107.8 131.431C107.878 131.798 108.057 132.137 108.317 132.407C108.577 132.678 108.908 132.87 109.272 132.962C109.658 133.016 110.051 132.963 110.409 132.808C110.767 132.653 111.075 132.403 111.3 132.084C112.217 130.713 112.977 129.244 113.566 127.703C114.1 126.516 114.611 125.424 114.955 124.783C115.549 123.679 116.296 122.664 117.173 121.767C117.291 121.614 117.444 121.491 117.62 121.411C117.796 121.33 117.989 121.293 118.182 121.304C118.514 121.376 118.811 121.744 119.024 122.29C119.024 122.385 119.095 122.966 119.166 123.584C119.416 125.958 119.89 130.339 120.448 131.585C120.616 131.956 120.877 132.278 121.205 132.519C121.533 132.761 121.918 132.913 122.322 132.962C122.692 132.941 123.052 132.837 123.377 132.659C123.701 132.48 123.981 132.231 124.197 131.93C124.973 130.539 125.659 129.099 126.25 127.62C126.855 126.255 127.436 124.854 127.875 124.059C128.355 123.163 128.99 122.359 129.75 121.684C129.878 121.534 130.042 121.419 130.226 121.349C130.411 121.278 130.61 121.255 130.805 121.281C130.999 121.379 131.165 121.524 131.29 121.702C131.414 121.88 131.492 122.086 131.517 122.302C131.517 122.444 131.636 123.239 131.719 124.011C131.873 125.388 132.075 127.276 132.265 128.214C132.374 128.976 132.638 129.708 133.039 130.365C133.441 131.022 133.972 131.59 134.601 132.035C135.229 132.479 135.942 132.791 136.695 132.95C137.448 133.11 138.225 133.114 138.98 132.962C144.034 132.286 149.658 128.926 153.217 126.089C153.42 127.575 153.701 129.049 154.06 130.505C154.251 131.34 154.736 132.078 155.427 132.584C156.118 133.089 156.968 133.329 157.821 133.259C160.063 133.259 160.989 132.072 162.045 130.469C162.967 128.637 163.623 126.682 163.99 124.664C164.136 125.581 164.335 126.488 164.584 127.383C165.77 131.668 168.653 133.52 173.304 132.879C177.955 132.238 185.168 127.05 189.285 121.316L189.57 121.471C189.938 121.661 190.282 121.85 190.614 122.052C191.884 122.824 192.073 123.239 191.801 124.747C191.741 125.103 191.658 125.459 191.575 125.816C191.492 126.172 191.373 126.706 191.29 127.169C191.138 127.835 191.12 128.525 191.238 129.197C191.357 129.87 191.608 130.513 191.979 131.087C192.34 131.576 192.796 131.987 193.32 132.295C193.844 132.603 194.425 132.802 195.028 132.879C202.146 134.066 210.321 128.475 213.038 126.184C213.203 127.321 213.469 128.441 213.833 129.531C214.121 130.432 214.671 131.226 215.413 131.812C216.155 132.398 217.055 132.749 217.997 132.82C223.206 133.188 226.302 131.941 230.799 127.703C230.826 128.984 230.969 130.259 231.226 131.514C231.313 131.881 231.502 132.216 231.77 132.481C232.039 132.745 232.377 132.929 232.745 133.01C233.129 133.067 233.523 133.015 233.879 132.86C234.236 132.705 234.542 132.452 234.762 132.131C235.684 130.762 236.448 129.292 237.04 127.751C237.574 126.564 238.084 125.471 238.428 124.83C239.019 123.724 239.766 122.708 240.647 121.815C240.764 121.661 240.918 121.539 241.093 121.458C241.269 121.377 241.462 121.341 241.655 121.352C241.975 121.423 242.284 121.791 242.486 122.337C242.486 122.432 242.569 123.014 242.64 123.631C242.829 126.33 243.254 129.008 243.909 131.633C244.048 132.003 244.288 132.327 244.603 132.566C244.918 132.806 245.294 132.95 245.688 132.984C246.082 133.018 246.478 132.939 246.829 132.756C247.18 132.574 247.471 132.295 247.67 131.953C248.457 130.562 249.147 129.118 249.735 127.632C250.328 126.279 250.921 124.878 251.36 124.07C251.841 123.175 252.475 122.371 253.235 121.696C253.363 121.546 253.527 121.431 253.712 121.36C253.896 121.29 254.095 121.267 254.291 121.293C254.484 121.391 254.65 121.535 254.775 121.714C254.899 121.892 254.977 122.098 255.002 122.313C255.002 122.456 255.121 123.251 255.204 124.023C255.347 125.4 255.548 127.288 255.738 128.226C255.85 128.988 256.116 129.719 256.52 130.375C256.923 131.031 257.455 131.599 258.084 132.043C258.713 132.487 259.426 132.798 260.179 132.959C260.932 133.119 261.71 133.124 262.465 132.974C269.881 131.977 277.628 125.507 278.411 124.51C278.561 124.293 278.641 124.037 278.641 123.774C278.641 123.511 278.561 123.254 278.411 123.038C278.327 122.919 278.221 122.818 278.098 122.74C277.975 122.663 277.837 122.611 277.694 122.586C277.551 122.562 277.404 122.566 277.262 122.599C277.121 122.632 276.987 122.692 276.869 122.776ZM188.597 118.028C188.22 117.476 188.075 116.798 188.194 116.14C188.251 115.806 188.379 115.488 188.569 115.207C188.76 114.927 189.008 114.69 189.297 114.514C189.549 115.741 189.315 117.018 188.645 118.075L188.597 118.028ZM75.7189 124.902C76.3087 123.944 77.0891 123.117 78.0117 122.474C78.9342 121.83 79.9792 121.384 81.0816 121.162C81.6553 121.067 82.2432 121.107 82.7991 121.278C83.3549 121.449 83.8635 121.746 84.285 122.147C82.4697 124.415 78.2223 129.401 77.368 130.101C77.0939 130.378 76.7372 130.558 76.3519 130.613C75.9666 130.669 75.5736 130.598 75.2324 130.41C74.6511 130.066 74.4375 129.472 74.4731 128.392C74.5505 127.154 74.9604 125.961 75.6596 124.937L75.7189 124.902Z" fill="#333F48"/>
<path d="M214.201 121.969C214.389 121.978 214.577 121.948 214.753 121.881C214.928 121.813 215.088 121.71 215.221 121.577C215.381 121.388 215.501 121.169 215.574 120.932C215.648 120.695 215.673 120.447 215.649 120.2C215.649 119.12 215.186 118.443 214.355 118.408C214.179 118.394 214.002 118.417 213.835 118.474C213.668 118.531 213.514 118.622 213.382 118.74C213.186 118.946 213.034 119.191 212.936 119.458C212.838 119.726 212.796 120.011 212.813 120.295C212.785 120.529 212.806 120.766 212.875 120.991C212.945 121.216 213.061 121.424 213.216 121.601C213.344 121.73 213.498 121.829 213.668 121.893C213.838 121.956 214.02 121.982 214.201 121.969Z" fill="#333F48"/>
<path d="M319.841 77.9018C319.675 77.9018 318.868 77.973 318.868 77.5456C318.867 77.4436 318.902 77.3444 318.967 77.266C319.032 77.1876 319.124 77.1352 319.224 77.1182C320.007 76.9401 320.138 76.3584 320.15 75.7174C320.15 72.9988 320.221 70.292 320.244 67.5734C320.244 67.0155 320.078 66.8136 319.556 66.6356C319.438 66.6356 319.07 66.505 319.07 66.1844C319.07 66.1294 319.081 66.0749 319.103 66.0243C319.124 65.9737 319.156 65.9281 319.196 65.8903C319.236 65.8525 319.284 65.8233 319.335 65.8044C319.387 65.7856 319.442 65.7776 319.497 65.7808C319.983 65.7808 323.056 65.7808 324.112 65.7808C325.434 65.6602 326.766 65.8303 328.016 66.2794C329.158 66.7487 330.14 67.5387 330.843 68.5541C331.546 69.5694 331.94 70.7668 331.978 72.0015C331.919 73.354 331.412 74.6484 330.539 75.6818C329.665 76.7152 328.473 77.4292 327.15 77.7118C324.719 77.9128 322.279 77.9762 319.841 77.9018ZM321.822 75.6699C321.822 76.584 322.143 77.0114 323.009 77.0707C324.246 77.1738 325.491 77.0161 326.663 76.6077C327.387 76.3913 328.042 75.9928 328.568 75.4503C329.094 74.9078 329.471 74.2395 329.665 73.5092C329.894 72.599 329.892 71.646 329.659 70.7366C329.427 69.8273 328.971 68.9904 328.334 68.3018C327.696 67.6132 326.897 67.0948 326.009 66.7934C325.12 66.4921 324.171 66.4175 323.246 66.5762C322.06 66.7899 321.894 66.9205 321.87 68.1789C321.846 69.4373 321.846 74.4352 321.822 75.6699Z" fill="#333F48"/>
<path d="M207.627 78.0561C206.708 77.9854 205.813 77.7278 204.997 77.2991C204.181 76.8705 203.461 76.2797 202.881 75.563C202.001 74.3629 201.567 72.8938 201.651 71.4079C201.735 69.922 202.334 68.5117 203.344 67.4191C204.001 66.7409 204.791 66.2061 205.665 65.8482C206.538 65.4903 207.477 65.317 208.42 65.3393C209.364 65.3616 210.293 65.579 211.149 65.9777C212.005 66.3765 212.769 66.9481 213.393 67.6565C214.314 68.7861 214.817 70.1993 214.817 71.6572C214.817 73.1152 214.314 74.5284 213.393 75.658C212.727 76.5292 211.843 77.2095 210.831 77.6305C209.819 78.0515 208.714 78.1983 207.627 78.0561ZM212.942 72.3458C213.038 71.5884 212.982 70.8197 212.778 70.084C212.575 69.3483 212.227 68.6604 211.756 68.0601C211.327 67.4814 210.766 67.014 210.12 66.6972C209.473 66.3805 208.76 66.2237 208.041 66.2399C207.321 66.2562 206.616 66.4451 205.984 66.7908C205.353 67.1365 204.813 67.6288 204.412 68.2263C203.743 69.3272 203.436 70.6101 203.534 71.8947C203.519 72.7686 203.718 73.6328 204.116 74.4112C204.513 75.1896 205.095 75.8583 205.812 76.3584C206.719 77.0118 207.844 77.2877 208.95 77.1283C210.056 76.9689 211.058 76.3866 211.744 75.5037C212.409 74.5732 212.818 73.4842 212.93 72.3458H212.942Z" fill="#333F48"/>
<path d="M232.27 67.4785C232.27 66.9205 232.151 66.7662 231.653 66.6593C231.51 66.6593 231.332 66.6593 231.226 66.5525C231.093 66.4322 231.008 66.2676 230.988 66.0895C230.988 65.9826 231.166 65.8164 231.285 65.7689C231.404 65.7215 233.824 65.7689 234.844 65.7689C235.07 65.7689 235.319 65.7689 235.343 66.1132C235.366 66.4575 235.165 66.5643 234.927 66.5881C234.144 66.6712 233.895 66.9086 233.859 68.0127C233.8 69.556 233.859 73.343 233.859 73.6873C233.857 74.0905 233.94 74.4897 234.104 74.8582C234.267 75.2266 234.508 75.556 234.809 75.8242C235.563 76.5066 236.544 76.8844 237.561 76.8844C238.578 76.8844 239.559 76.5066 240.314 75.8242C240.926 75.2598 241.3 74.4826 241.358 73.6517C241.53 71.6769 241.53 69.6908 241.358 67.7159C241.358 66.9917 240.966 66.5287 239.993 66.5287C239.721 66.5287 239.697 66.2438 239.732 65.9945C239.768 65.7452 239.898 65.7096 240.1 65.7215C241.144 65.7215 242.698 65.7215 243.743 65.7215C243.992 65.7215 244.075 65.8639 244.099 66.0776C244.122 66.2913 244.098 66.4694 243.861 66.5525C243.078 66.8255 242.971 66.968 242.948 67.9058C242.948 69.3067 243.043 73.3668 242.639 74.4352C242.046 76.0023 241.382 77.142 239.958 77.6168C238.292 78.1804 236.487 78.1804 234.82 77.6168C234.054 77.3615 233.391 76.8653 232.929 76.2022C232.467 75.5391 232.232 74.7444 232.258 73.9366C232.222 72.975 232.27 68.5825 232.27 67.4785Z" fill="#333F48"/>
<path d="M265.765 78.0444C265.254 78.0444 264.258 77.8782 263.273 77.7476C263.042 77.7416 262.822 77.6471 262.659 77.4836C262.495 77.3202 262.401 77.1002 262.395 76.8691C262.324 76.1212 262.253 75.3733 262.193 74.6135C262.193 74.4116 262.193 74.2217 262.502 74.1742C262.81 74.1267 262.941 74.3048 263.024 74.6016C263.217 75.3542 263.678 76.0106 264.32 76.4477C264.962 76.8848 265.741 77.0726 266.512 76.9759C268.707 76.9759 269.882 75.6938 269.359 74.1861C269.245 73.911 269.074 73.6632 268.857 73.4586C268.64 73.2541 268.383 73.0975 268.102 72.9989C267.366 72.6784 264.602 71.4912 264.044 71.0995C263.673 70.8659 263.363 70.5471 263.141 70.1695C262.918 69.792 262.788 69.3667 262.762 68.9289C262.737 68.4911 262.816 68.0536 262.994 67.6526C263.171 67.2517 263.442 66.899 263.783 66.6239C264.422 66.0934 265.181 65.7274 265.994 65.5577C266.806 65.388 267.648 65.4198 268.446 65.6504C268.937 65.796 269.467 65.7405 269.917 65.496C269.971 65.457 270.034 65.4341 270.1 65.4303C270.166 65.4264 270.232 65.4417 270.289 65.4743C270.347 65.5068 270.394 65.5553 270.425 65.6139C270.456 65.6725 270.469 65.7388 270.463 65.8047C270.546 66.6357 270.593 67.4667 270.629 68.2978C270.633 68.3772 270.607 68.4551 270.557 68.5166C270.506 68.578 270.435 68.6185 270.356 68.6302C269.976 68.7133 269.787 68.2859 269.739 68.1672C269.54 67.7784 269.259 67.4374 268.915 67.1672C268.572 66.897 268.175 66.704 267.75 66.6015C267.326 66.4989 266.884 66.4892 266.455 66.573C266.027 66.6567 265.621 66.832 265.266 67.0868C265.068 67.2246 264.906 67.4083 264.794 67.6222C264.682 67.8362 264.624 68.0741 264.624 68.3156C264.624 68.557 264.682 68.7949 264.794 69.0089C264.906 69.2229 265.068 69.4066 265.266 69.5443C265.765 69.936 268.826 71.0638 269.858 71.7999C270.39 72.0835 270.824 72.5202 271.106 73.0535C271.387 73.5867 271.502 74.1922 271.436 74.7915C271.032 77.2252 269.217 78.175 265.765 78.0444Z" fill="#333F48"/>
<path d="M293.597 73.6756C293.5 73.6589 293.401 73.6772 293.316 73.7272C293.231 73.7772 293.167 73.8557 293.135 73.9487C292.826 74.661 292.482 75.3377 292.185 76.0499C291.889 76.7622 292.102 76.9641 292.767 77.0947C292.945 77.0947 293.111 77.0947 293.289 77.1896C293.337 77.1914 293.384 77.2049 293.426 77.2291C293.468 77.2533 293.503 77.2873 293.529 77.3283C293.555 77.3693 293.57 77.4159 293.574 77.4641C293.577 77.5124 293.569 77.5608 293.55 77.6051C293.518 77.6769 293.47 77.7407 293.411 77.792C293.351 77.8433 293.281 77.8808 293.206 77.9019C292.102 77.9019 291.011 77.9019 289.907 77.9019C289.834 77.891 289.765 77.8611 289.707 77.8153C289.649 77.7695 289.603 77.7094 289.575 77.6408C289.575 77.4864 289.635 77.2015 289.729 77.1778C290.631 76.8928 290.916 76.0974 291.272 75.3614C292.458 72.8565 295.329 66.5526 295.59 65.8641C295.697 65.591 295.84 65.3655 296.184 65.3655C296.528 65.3655 296.682 65.6029 296.801 65.876C298.209 69.0417 299.624 72.2075 301.048 75.3733C301.242 75.791 301.477 76.1886 301.748 76.5604C301.915 76.7807 302.13 76.9595 302.377 77.0828C302.602 77.2015 302.721 77.3321 302.685 77.5814C302.65 77.8307 302.436 77.9138 302.199 77.9019C301.404 77.9019 299.221 77.9019 298.913 77.9019C298.604 77.9019 298.426 77.9019 298.39 77.617C298.38 77.5531 298.384 77.4877 298.401 77.4253C298.418 77.3629 298.449 77.3049 298.491 77.2554C298.532 77.2058 298.584 77.1658 298.643 77.1381C298.701 77.1104 298.765 77.0955 298.829 77.0947C298.94 77.112 299.052 77.112 299.162 77.0947C299.235 77.0835 299.305 77.0552 299.366 77.0121C299.426 76.969 299.476 76.9122 299.511 76.8463C299.545 76.7805 299.564 76.7074 299.565 76.633C299.566 76.5586 299.55 76.4849 299.518 76.418C299.162 75.5751 298.794 74.7322 298.402 73.9012C298.402 73.8181 298.177 73.7587 298.058 73.7587L293.597 73.6756ZM297.821 72.6665L295.804 67.9179L293.692 72.6665H297.821Z" fill="#333F48"/>
<path d="M354.344 73.6754H352.113C352.046 73.6776 351.981 73.6948 351.921 73.7256C351.862 73.7564 351.81 73.8001 351.769 73.8535C351.413 74.5777 351.057 75.3137 350.749 76.0497C350.441 76.7858 350.678 76.9401 351.318 77.0826L351.841 77.1657C351.892 77.1696 351.942 77.1856 351.987 77.2123C352.031 77.239 352.069 77.2758 352.096 77.3196C352.124 77.3635 352.141 77.4132 352.146 77.4648C352.151 77.5164 352.144 77.5684 352.125 77.6168C352.089 77.6878 352.038 77.7495 351.974 77.7969C351.91 77.8443 351.836 77.8762 351.758 77.8898C350.678 77.8898 349.598 77.8898 348.507 77.8898C348.376 77.8898 348.163 77.7474 348.151 77.6524C348.139 77.5574 348.21 77.1894 348.317 77.1538C349.171 76.8807 349.503 76.1447 349.8 75.4443C350.986 72.9038 352.173 70.3751 353.359 67.8464C353.644 67.2172 353.881 66.5643 354.142 65.9232C354.261 65.6383 354.391 65.4009 354.759 65.4009C355.127 65.4009 355.246 65.6502 355.364 65.9351C356.752 69.0336 358.141 72.144 359.541 75.2425C359.744 75.6889 359.99 76.1143 360.276 76.5127C360.458 76.7523 360.688 76.9506 360.952 77.0944C361.178 77.2132 361.32 77.3794 361.225 77.593C361.181 77.6738 361.118 77.7428 361.042 77.7944C360.965 77.846 360.878 77.8787 360.786 77.8898C360.027 77.8898 359.268 77.8898 358.52 77.8186C358.176 77.8186 357.832 77.8186 357.5 77.8186C357.168 77.8186 357.025 77.8186 356.954 77.5456C356.883 77.2725 357.096 77.0588 357.405 77.0113C358.105 76.9164 358.259 76.6789 357.974 76.026L357.037 73.8891C357.01 73.8003 356.952 73.7241 356.874 73.6741C356.795 73.6241 356.702 73.6035 356.61 73.616L354.344 73.6754ZM356.385 72.6663L354.38 67.9177L352.268 72.6663H356.385Z" fill="#333F48"/>
<path d="M177.29 73.5093C177.29 74.4115 177.29 75.2663 177.29 76.121C177.29 76.6909 177.575 76.8927 178.157 76.9995C178.443 77.0534 178.732 77.0891 179.023 77.1064C179.284 77.1064 179.39 77.2726 179.379 77.5337C179.367 77.7949 179.201 77.8543 178.975 77.8543H174.74C174.479 77.8543 174.289 77.8543 174.265 77.4981C174.241 77.142 174.384 77.1064 174.668 77.0826C175.297 77.0826 175.475 76.8452 175.499 76.1566C175.499 74.364 175.606 68.6063 175.582 67.526C175.583 67.3902 175.555 67.2557 175.5 67.1315C175.445 67.0073 175.365 66.8961 175.264 66.8052C175.163 66.7144 175.044 66.646 174.915 66.6044C174.786 66.5629 174.649 66.5493 174.514 66.5644C174.46 66.5703 174.406 66.5639 174.355 66.5455C174.304 66.5271 174.257 66.4973 174.22 66.4584C174.182 66.4195 174.154 66.3724 174.137 66.3208C174.12 66.2692 174.115 66.2145 174.123 66.1607C174.117 66.1095 174.123 66.0576 174.14 66.0089C174.157 65.9603 174.185 65.9161 174.221 65.8796C174.258 65.8431 174.302 65.8153 174.351 65.7982C174.399 65.7811 174.451 65.7752 174.502 65.7808C176.556 65.5493 178.63 65.5493 180.684 65.7808C181.171 65.8412 181.641 66.0019 182.063 66.2528C182.485 66.5036 182.851 66.8392 183.137 67.2383C183.424 67.6375 183.625 68.0917 183.727 68.5723C183.83 69.0529 183.831 69.5495 183.733 70.0309C183.615 70.7734 183.278 71.4636 182.764 72.0119C182.25 72.5601 181.583 72.9412 180.85 73.1056C180.038 73.2843 179.212 73.3916 178.382 73.4262C178.026 73.6042 177.646 73.5093 177.29 73.5093ZM177.184 72.1321C177.184 72.4052 177.29 72.5595 177.54 72.5714C178.159 72.6248 178.783 72.6248 179.402 72.5714C180.056 72.4264 180.646 72.073 181.082 71.5644C181.518 71.0557 181.778 70.4192 181.822 69.7504C181.866 69.0815 181.692 68.4164 181.327 67.8548C180.961 67.2932 180.423 66.8654 179.794 66.6356C179.365 66.5421 178.927 66.5022 178.489 66.5169C178.327 66.4928 178.163 66.507 178.008 66.5581C177.853 66.6093 177.712 66.696 177.597 66.8115C177.481 66.9269 177.395 67.0677 177.344 67.2227C177.292 67.3777 177.278 67.5426 177.302 67.704C177.302 68.3807 177.207 71.3842 177.184 72.1321Z" fill="#333F48"/>
<path d="M301.357 30.0355C295.294 34.0481 290.204 34.3212 284.248 33.6682C278.292 33.0153 276.192 27.5543 261.148 28.0173C249.533 28.3735 233.67 32.3505 233.67 32.3505C233.67 32.3505 228.794 33.7632 229.885 34.7248C230.977 35.6864 231.072 36.4581 228.794 36.4581C226.516 36.4581 228.58 38.405 233.67 41.0049C238.76 43.6048 252.499 48.674 262.928 48.2228C273.155 47.7717 282.195 38.5712 289.207 42.2277C296.397 45.9554 298.058 47.5699 302.258 46.4777C306.458 45.3855 306.423 34.796 306.423 34.796C306.423 34.796 307.419 26.0348 301.357 30.0355ZM302.151 43.5335C299.553 46.2284 295.792 44.1509 294.368 43.2249C291.628 41.456 287.606 38.9748 282.587 40.1264C279.028 40.9337 272.419 43.1299 268.848 44.2102C256.295 48.0329 238.178 42.0733 233.8 37.9064C233.8 37.9064 232.377 36.4106 234.987 35.4133C241.251 33.039 254.456 30.9259 258.265 30.5578C269.868 29.4419 274.875 31.2583 279.621 33.4901C281.851 34.5348 284.082 35.164 289.112 35.1047C293.591 34.8553 297.999 33.8769 302.163 32.208C302.163 32.208 304.109 31.5551 304.18 33.2527C304.251 34.9504 304.762 40.8387 302.151 43.5335Z" fill="#333F48"/>
<path d="M300.005 35.3182C297.632 36.5885 290.739 37.3364 288.057 37.1702C283.849 36.9462 279.699 36.0773 275.754 34.5941C269.157 31.9586 259.405 32.8964 251.1 34.3566C251.63 34.8444 252.054 35.4371 252.344 36.0971C252.634 36.7571 252.784 37.4702 252.784 38.1912C252.784 39.2994 252.426 40.3779 251.764 41.2659H251.93C261.92 42.7736 267.354 40.6842 272.966 39.3665C277.791 38.2168 282.786 37.9673 287.701 38.6304C290.083 39.0355 292.401 39.754 294.595 40.7673C296.813 41.8833 298.273 42.4768 299.756 42.0732C301.642 41.539 302.022 38.2862 302.069 36.363C302.093 35.4013 301.986 34.2498 300.005 35.3182Z" fill="#333F48"/>
<path d="M242.272 38.191C242.287 37.3618 242.499 36.548 242.889 35.8167C241.703 36.0422 240.623 36.244 240.066 36.3746C237.621 36.9563 237.515 38.0604 239.911 38.6302L242.367 39.2476C242.303 38.8991 242.271 38.5454 242.272 38.191Z" fill="#333F48"/>
<path d="M241.917 40.8738C242.315 41.6905 242.878 42.4158 243.571 43.0042C244.263 43.5926 245.069 44.0313 245.939 44.2929C246.911 44.5357 247.928 44.536 248.9 44.2939C249.872 44.0517 250.77 43.5745 251.515 42.9041C252.26 42.2337 252.829 41.3906 253.173 40.4488C253.516 39.5069 253.623 38.4952 253.485 37.5023C253.434 36.6815 253.209 35.881 252.824 35.1545C252.439 34.4279 251.904 33.7921 251.253 33.2896C250.603 32.787 249.852 32.4295 249.052 32.2408C248.252 32.0522 247.422 32.0368 246.615 32.1957C245.654 32.3076 244.734 32.6494 243.933 33.192C243.132 33.7347 242.474 34.4623 242.013 35.3134C241.552 36.1645 241.303 37.1141 241.286 38.0819C241.269 39.0497 241.486 40.0073 241.917 40.8738ZM251.93 37.9059C251.93 38.7329 251.685 39.5413 251.226 40.2288C250.766 40.9162 250.113 41.4518 249.35 41.7678C248.586 42.0837 247.745 42.1658 246.935 42.0036C246.125 41.8414 245.38 41.4422 244.797 40.8566C244.213 40.271 243.816 39.5253 243.657 38.7139C243.497 37.9025 243.581 37.0619 243.899 36.2985C244.217 35.5352 244.754 34.8833 245.443 34.4256C246.131 33.9678 246.94 33.7248 247.766 33.7271C248.314 33.7271 248.856 33.8353 249.362 34.0454C249.868 34.2556 250.328 34.5636 250.715 34.9518C251.102 35.34 251.408 35.8007 251.617 36.3077C251.825 36.8146 251.932 37.3577 251.93 37.9059Z" fill="#333F48"/>
<path d="M247.764 35.6148C247.293 35.603 246.828 35.7321 246.43 35.9857C246.032 36.2393 245.719 36.6059 245.53 37.0386C245.341 37.4713 245.286 37.9504 245.371 38.4148C245.455 38.8792 245.677 39.3078 246.006 39.6459C246.335 39.9839 246.758 40.216 247.22 40.3125C247.682 40.409 248.162 40.3656 248.599 40.1878C249.036 40.0099 249.41 39.7058 249.673 39.3141C249.937 38.9225 250.078 38.4612 250.078 37.9891C250.078 37.3695 249.836 36.7744 249.404 36.3308C248.972 35.8872 248.383 35.6302 247.764 35.6148ZM247.764 38.9388C247.567 38.9388 247.374 38.8803 247.211 38.7708C247.047 38.6612 246.919 38.5054 246.843 38.3232C246.768 38.141 246.748 37.9405 246.787 37.747C246.825 37.5536 246.92 37.3759 247.06 37.2365C247.199 37.097 247.376 37.002 247.57 36.9635C247.763 36.9251 247.964 36.9448 248.146 37.0203C248.328 37.0958 248.483 37.2236 248.593 37.3876C248.702 37.5516 248.761 37.7444 248.761 37.9416C248.752 38.1999 248.643 38.4444 248.457 38.6238C248.271 38.8032 248.023 38.9034 247.764 38.9032V38.9388Z" fill="#333F48"/>
</svg>
